<mxfile host="65bd71144e" pages="2">
    <diagram id="boRz07EWy4GvGDbGCsp5" name="요구사항">
        <mxGraphModel dx="764" dy="501" grid="1" gridSize="10" guides="1" tooltips="1" connect="1" arrows="1" fold="1" page="1" pageScale="1" pageWidth="827" pageHeight="1169" math="0" shadow="0">
            <root>
                <mxCell id="0"/>
                <mxCell id="1" parent="0"/>
                <mxCell id="SB8yE_wiy3I-1DV759Xg-6" style="edgeStyle=none;curved=1;rounded=0;orthogonalLoop=1;jettySize=auto;html=1;fontSize=12;startSize=8;endSize=8;dashed=1;dashPattern=8 8;" parent="1" source="SB8yE_wiy3I-1DV759Xg-1" target="SB8yE_wiy3I-1DV759Xg-5" edge="1">
                    <mxGeometry relative="1" as="geometry"/>
                </mxCell>
                <mxCell id="SB8yE_wiy3I-1DV759Xg-7" value="include" style="edgeLabel;html=1;align=center;verticalAlign=middle;resizable=0;points=[];fontSize=12;" parent="SB8yE_wiy3I-1DV759Xg-6" vertex="1" connectable="0">
                    <mxGeometry x="-0.1879" y="3" relative="1" as="geometry">
                        <mxPoint x="18" y="-12" as="offset"/>
                    </mxGeometry>
                </mxCell>
                <mxCell id="SB8yE_wiy3I-1DV759Xg-1" value="비밀번호 재설정" style="ellipse;whiteSpace=wrap;html=1;" parent="1" vertex="1">
                    <mxGeometry x="321" y="120" width="140" height="70" as="geometry"/>
                </mxCell>
                <mxCell id="SB8yE_wiy3I-1DV759Xg-27" style="edgeStyle=orthogonalEdgeStyle;curved=1;rounded=0;orthogonalLoop=1;jettySize=auto;html=1;fontSize=12;startSize=8;endSize=8;endArrow=none;endFill=0;" parent="1" source="SB8yE_wiy3I-1DV759Xg-2" target="SB8yE_wiy3I-1DV759Xg-1" edge="1">
                    <mxGeometry relative="1" as="geometry">
                        <Array as="points">
                            <mxPoint x="240" y="350"/>
                            <mxPoint x="240" y="155"/>
                        </Array>
                    </mxGeometry>
                </mxCell>
                <mxCell id="SB8yE_wiy3I-1DV759Xg-28" style="edgeStyle=orthogonalEdgeStyle;curved=1;rounded=0;orthogonalLoop=1;jettySize=auto;html=1;fontSize=12;startSize=8;endSize=8;endArrow=none;endFill=0;" parent="1" source="SB8yE_wiy3I-1DV759Xg-2" target="SB8yE_wiy3I-1DV759Xg-8" edge="1">
                    <mxGeometry relative="1" as="geometry">
                        <Array as="points">
                            <mxPoint x="280" y="350"/>
                            <mxPoint x="280" y="245"/>
                        </Array>
                    </mxGeometry>
                </mxCell>
                <mxCell id="SB8yE_wiy3I-1DV759Xg-29" style="edgeStyle=orthogonalEdgeStyle;shape=connector;curved=1;rounded=0;orthogonalLoop=1;jettySize=auto;html=1;strokeColor=default;align=center;verticalAlign=middle;fontFamily=Helvetica;fontSize=12;fontColor=default;labelBackgroundColor=default;startSize=8;endArrow=none;endFill=0;endSize=8;" parent="1" source="SB8yE_wiy3I-1DV759Xg-2" target="SB8yE_wiy3I-1DV759Xg-9" edge="1">
                    <mxGeometry relative="1" as="geometry"/>
                </mxCell>
                <mxCell id="SB8yE_wiy3I-1DV759Xg-30" style="edgeStyle=orthogonalEdgeStyle;shape=connector;curved=1;rounded=0;orthogonalLoop=1;jettySize=auto;html=1;strokeColor=default;align=center;verticalAlign=middle;fontFamily=Helvetica;fontSize=12;fontColor=default;labelBackgroundColor=default;startSize=8;endArrow=none;endFill=0;endSize=8;entryX=0;entryY=0.5;entryDx=0;entryDy=0;exitX=0.633;exitY=0.833;exitDx=0;exitDy=0;exitPerimeter=0;" parent="1" source="SB8yE_wiy3I-1DV759Xg-2" target="SB8yE_wiy3I-1DV759Xg-10" edge="1">
                    <mxGeometry relative="1" as="geometry">
                        <mxPoint x="210" y="350" as="sourcePoint"/>
                        <Array as="points">
                            <mxPoint x="189" y="380"/>
                            <mxPoint x="260" y="380"/>
                            <mxPoint x="260" y="433"/>
                        </Array>
                    </mxGeometry>
                </mxCell>
                <mxCell id="SB8yE_wiy3I-1DV759Xg-33" style="edgeStyle=orthogonalEdgeStyle;shape=connector;curved=1;rounded=0;orthogonalLoop=1;jettySize=auto;html=1;strokeColor=default;align=center;verticalAlign=middle;fontFamily=Helvetica;fontSize=12;fontColor=default;labelBackgroundColor=default;startSize=8;endArrow=none;endFill=0;endSize=8;" parent="1" source="SB8yE_wiy3I-1DV759Xg-2" target="SB8yE_wiy3I-1DV759Xg-16" edge="1">
                    <mxGeometry relative="1" as="geometry">
                        <mxPoint x="130" y="387" as="sourcePoint"/>
                        <mxPoint x="321" y="615" as="targetPoint"/>
                        <Array as="points">
                            <mxPoint x="240" y="350"/>
                            <mxPoint x="240" y="525"/>
                        </Array>
                    </mxGeometry>
                </mxCell>
                <mxCell id="SB8yE_wiy3I-1DV759Xg-2" value="일반사용자" style="shape=umlActor;verticalLabelPosition=bottom;verticalAlign=top;html=1;outlineConnect=0;" parent="1" vertex="1">
                    <mxGeometry x="170" y="320" width="30" height="60" as="geometry"/>
                </mxCell>
                <mxCell id="SB8yE_wiy3I-1DV759Xg-34" style="edgeStyle=orthogonalEdgeStyle;shape=connector;curved=1;rounded=0;orthogonalLoop=1;jettySize=auto;html=1;strokeColor=default;align=center;verticalAlign=middle;fontFamily=Helvetica;fontSize=12;fontColor=default;labelBackgroundColor=default;startSize=8;endArrow=none;endFill=0;endSize=8;" parent="1" source="SB8yE_wiy3I-1DV759Xg-3" target="SB8yE_wiy3I-1DV759Xg-12" edge="1">
                    <mxGeometry relative="1" as="geometry">
                        <Array as="points">
                            <mxPoint x="270" y="560"/>
                            <mxPoint x="270" y="615"/>
                        </Array>
                    </mxGeometry>
                </mxCell>
                <mxCell id="SB8yE_wiy3I-1DV759Xg-35" style="edgeStyle=orthogonalEdgeStyle;shape=connector;curved=1;rounded=0;orthogonalLoop=1;jettySize=auto;html=1;strokeColor=default;align=center;verticalAlign=middle;fontFamily=Helvetica;fontSize=12;fontColor=default;labelBackgroundColor=default;startSize=8;endArrow=none;endFill=0;endSize=8;" parent="1" source="SB8yE_wiy3I-1DV759Xg-3" target="SB8yE_wiy3I-1DV759Xg-10" edge="1">
                    <mxGeometry relative="1" as="geometry">
                        <Array as="points">
                            <mxPoint x="230" y="530"/>
                            <mxPoint x="230" y="433"/>
                        </Array>
                    </mxGeometry>
                </mxCell>
                <mxCell id="SB8yE_wiy3I-1DV759Xg-36" style="edgeStyle=orthogonalEdgeStyle;shape=connector;curved=1;rounded=0;orthogonalLoop=1;jettySize=auto;html=1;strokeColor=default;align=center;verticalAlign=middle;fontFamily=Helvetica;fontSize=12;fontColor=default;labelBackgroundColor=default;startSize=8;endArrow=none;endFill=0;endSize=8;" parent="1" source="SB8yE_wiy3I-1DV759Xg-3" target="SB8yE_wiy3I-1DV759Xg-13" edge="1">
                    <mxGeometry relative="1" as="geometry">
                        <Array as="points">
                            <mxPoint x="290" y="530"/>
                            <mxPoint x="290" y="707"/>
                        </Array>
                    </mxGeometry>
                </mxCell>
                <mxCell id="SB8yE_wiy3I-1DV759Xg-37" style="edgeStyle=orthogonalEdgeStyle;shape=connector;curved=1;rounded=0;orthogonalLoop=1;jettySize=auto;html=1;strokeColor=default;align=center;verticalAlign=middle;fontFamily=Helvetica;fontSize=12;fontColor=default;labelBackgroundColor=default;startSize=8;endArrow=none;endFill=0;endSize=8;" parent="1" source="SB8yE_wiy3I-1DV759Xg-3" target="SB8yE_wiy3I-1DV759Xg-14" edge="1">
                    <mxGeometry relative="1" as="geometry">
                        <mxPoint x="391" y="750" as="targetPoint"/>
                        <Array as="points">
                            <mxPoint x="270" y="530"/>
                            <mxPoint x="270" y="797"/>
                        </Array>
                    </mxGeometry>
                </mxCell>
                <mxCell id="SB8yE_wiy3I-1DV759Xg-38" style="edgeStyle=orthogonalEdgeStyle;shape=connector;curved=1;rounded=0;orthogonalLoop=1;jettySize=auto;html=1;strokeColor=default;align=center;verticalAlign=middle;fontFamily=Helvetica;fontSize=12;fontColor=default;labelBackgroundColor=default;startSize=8;endArrow=none;endFill=0;endSize=8;" parent="1" source="SB8yE_wiy3I-1DV759Xg-3" target="SB8yE_wiy3I-1DV759Xg-15" edge="1">
                    <mxGeometry relative="1" as="geometry">
                        <Array as="points">
                            <mxPoint x="250" y="530"/>
                            <mxPoint x="250" y="887"/>
                        </Array>
                    </mxGeometry>
                </mxCell>
                <mxCell id="SB8yE_wiy3I-1DV759Xg-39" style="edgeStyle=orthogonalEdgeStyle;shape=connector;curved=1;rounded=0;orthogonalLoop=1;jettySize=auto;html=1;strokeColor=default;align=center;verticalAlign=middle;fontFamily=Helvetica;fontSize=12;fontColor=default;labelBackgroundColor=default;startSize=8;endArrow=none;endFill=0;endSize=8;" parent="1" source="SB8yE_wiy3I-1DV759Xg-3" target="SB8yE_wiy3I-1DV759Xg-18" edge="1">
                    <mxGeometry relative="1" as="geometry">
                        <Array as="points">
                            <mxPoint x="600" y="550"/>
                        </Array>
                    </mxGeometry>
                </mxCell>
                <mxCell id="SB8yE_wiy3I-1DV759Xg-40" style="edgeStyle=orthogonalEdgeStyle;shape=connector;curved=1;rounded=0;orthogonalLoop=1;jettySize=auto;html=1;entryX=0;entryY=0.5;entryDx=0;entryDy=0;strokeColor=default;align=center;verticalAlign=middle;fontFamily=Helvetica;fontSize=12;fontColor=default;labelBackgroundColor=default;startSize=8;endArrow=none;endFill=0;endSize=8;" parent="1" source="SB8yE_wiy3I-1DV759Xg-3" target="SB8yE_wiy3I-1DV759Xg-19" edge="1">
                    <mxGeometry relative="1" as="geometry"/>
                </mxCell>
                <mxCell id="SB8yE_wiy3I-1DV759Xg-41" style="edgeStyle=orthogonalEdgeStyle;shape=connector;curved=1;rounded=0;orthogonalLoop=1;jettySize=auto;html=1;entryX=0;entryY=0.5;entryDx=0;entryDy=0;strokeColor=default;align=center;verticalAlign=middle;fontFamily=Helvetica;fontSize=12;fontColor=default;labelBackgroundColor=default;startSize=8;endArrow=none;endFill=0;endSize=8;" parent="1" source="SB8yE_wiy3I-1DV759Xg-3" target="SB8yE_wiy3I-1DV759Xg-20" edge="1">
                    <mxGeometry relative="1" as="geometry"/>
                </mxCell>
                <mxCell id="SB8yE_wiy3I-1DV759Xg-3" value="관리자" style="shape=umlActor;verticalLabelPosition=bottom;verticalAlign=top;html=1;outlineConnect=0;" parent="1" vertex="1">
                    <mxGeometry x="160" y="500" width="30" height="60" as="geometry"/>
                </mxCell>
                <mxCell id="SB8yE_wiy3I-1DV759Xg-5" value="본인확인" style="ellipse;whiteSpace=wrap;html=1;" parent="1" vertex="1">
                    <mxGeometry x="630" y="170" width="140" height="70" as="geometry"/>
                </mxCell>
                <mxCell id="SB8yE_wiy3I-1DV759Xg-8" value="회원 탈퇴" style="ellipse;whiteSpace=wrap;html=1;" parent="1" vertex="1">
                    <mxGeometry x="321" y="210" width="140" height="70" as="geometry"/>
                </mxCell>
                <mxCell id="SB8yE_wiy3I-1DV759Xg-9" value="회원 가입" style="ellipse;whiteSpace=wrap;html=1;" parent="1" vertex="1">
                    <mxGeometry x="321" y="300" width="140" height="70" as="geometry"/>
                </mxCell>
                <mxCell id="SB8yE_wiy3I-1DV759Xg-23" style="edgeStyle=none;curved=1;rounded=0;orthogonalLoop=1;jettySize=auto;html=1;fontSize=12;startSize=8;endSize=8;dashed=1;dashPattern=8 8;" parent="1" source="SB8yE_wiy3I-1DV759Xg-10" target="SB8yE_wiy3I-1DV759Xg-21" edge="1">
                    <mxGeometry relative="1" as="geometry"/>
                </mxCell>
                <mxCell id="SB8yE_wiy3I-1DV759Xg-25" value="include" style="edgeLabel;html=1;align=center;verticalAlign=middle;resizable=0;points=[];fontSize=12;" parent="SB8yE_wiy3I-1DV759Xg-23" vertex="1" connectable="0">
                    <mxGeometry x="-0.1163" y="-2" relative="1" as="geometry">
                        <mxPoint x="-1" y="-16" as="offset"/>
                    </mxGeometry>
                </mxCell>
                <mxCell id="SB8yE_wiy3I-1DV759Xg-10" value="계정 정보 수정" style="ellipse;whiteSpace=wrap;html=1;" parent="1" vertex="1">
                    <mxGeometry x="321" y="396" width="140" height="73" as="geometry"/>
                </mxCell>
                <mxCell id="SB8yE_wiy3I-1DV759Xg-11" value="사용자 계정 관리 시스템" style="text;html=1;align=center;verticalAlign=middle;resizable=0;points=[];autosize=1;strokeColor=none;fillColor=none;fontSize=16;fontStyle=1" parent="1" vertex="1">
                    <mxGeometry x="260" y="70" width="180" height="30" as="geometry"/>
                </mxCell>
                <mxCell id="SB8yE_wiy3I-1DV759Xg-24" style="edgeStyle=none;curved=1;rounded=0;orthogonalLoop=1;jettySize=auto;html=1;fontSize=12;startSize=8;endSize=8;dashed=1;dashPattern=8 8;" parent="1" source="SB8yE_wiy3I-1DV759Xg-12" target="SB8yE_wiy3I-1DV759Xg-22" edge="1">
                    <mxGeometry relative="1" as="geometry"/>
                </mxCell>
                <mxCell id="SB8yE_wiy3I-1DV759Xg-26" value="include" style="edgeLabel;html=1;align=center;verticalAlign=middle;resizable=0;points=[];fontSize=12;" parent="SB8yE_wiy3I-1DV759Xg-24" vertex="1" connectable="0">
                    <mxGeometry x="0.0112" y="1" relative="1" as="geometry">
                        <mxPoint x="-2" y="-23" as="offset"/>
                    </mxGeometry>
                </mxCell>
                <mxCell id="SB8yE_wiy3I-1DV759Xg-12" value="로그인" style="ellipse;whiteSpace=wrap;html=1;" parent="1" vertex="1">
                    <mxGeometry x="321" y="578" width="140" height="73" as="geometry"/>
                </mxCell>
                <mxCell id="SB8yE_wiy3I-1DV759Xg-13" value="계정 정보 조회" style="ellipse;whiteSpace=wrap;html=1;" parent="1" vertex="1">
                    <mxGeometry x="321" y="670" width="140" height="73" as="geometry"/>
                </mxCell>
                <mxCell id="SB8yE_wiy3I-1DV759Xg-14" value="계정 활성화/비활성화" style="ellipse;whiteSpace=wrap;html=1;" parent="1" vertex="1">
                    <mxGeometry x="321" y="760" width="140" height="73" as="geometry"/>
                </mxCell>
                <mxCell id="SB8yE_wiy3I-1DV759Xg-15" value="계정 잠금/잠금 해제" style="ellipse;whiteSpace=wrap;html=1;" parent="1" vertex="1">
                    <mxGeometry x="321" y="850" width="140" height="73" as="geometry"/>
                </mxCell>
                <mxCell id="SB8yE_wiy3I-1DV759Xg-16" value="회원 가입" style="ellipse;whiteSpace=wrap;html=1;" parent="1" vertex="1">
                    <mxGeometry x="321" y="490" width="140" height="70" as="geometry"/>
                </mxCell>
                <mxCell id="SB8yE_wiy3I-1DV759Xg-18" value="계정 일괄 등록" style="ellipse;whiteSpace=wrap;html=1;" parent="1" vertex="1">
                    <mxGeometry x="490" y="760" width="140" height="73" as="geometry"/>
                </mxCell>
                <mxCell id="SB8yE_wiy3I-1DV759Xg-19" value="계정 일괄 수정" style="ellipse;whiteSpace=wrap;html=1;" parent="1" vertex="1">
                    <mxGeometry x="250" y="980" width="140" height="73" as="geometry"/>
                </mxCell>
                <mxCell id="SB8yE_wiy3I-1DV759Xg-20" value="휴면 계정 관리" style="ellipse;whiteSpace=wrap;html=1;" parent="1" vertex="1">
                    <mxGeometry x="80" y="810" width="140" height="73" as="geometry"/>
                </mxCell>
                <mxCell id="SB8yE_wiy3I-1DV759Xg-21" value="인증" style="ellipse;whiteSpace=wrap;html=1;" parent="1" vertex="1">
                    <mxGeometry x="620" y="300" width="80" height="70" as="geometry"/>
                </mxCell>
                <mxCell id="SB8yE_wiy3I-1DV759Xg-22" value="사용자 정보 확인" style="ellipse;whiteSpace=wrap;html=1;" parent="1" vertex="1">
                    <mxGeometry x="580" y="550" width="140" height="70" as="geometry"/>
                </mxCell>
            </root>
        </mxGraphModel>
    </diagram>
    <diagram name="도메인모델" id="TKPaWvZVgJuJDZthVSUy">
        <mxGraphModel dx="1285" dy="768" grid="1" gridSize="10" guides="1" tooltips="1" connect="1" arrows="1" fold="1" page="1" pageScale="1" pageWidth="827" pageHeight="1169" math="0" shadow="0">
            <root>
                <mxCell id="0"/>
                <mxCell id="1" parent="0"/>
                <mxCell id="3LQb9dPc7IVUKIHJpzme-31" value="&lt;table role=&quot;table&quot; style=&quot;box-sizing: border-box; border-spacing: 0px; border-collapse: collapse; margin-top: 0px; margin-bottom: 16px; display: block; width: max-content; max-width: 100%; overflow: auto; font-variant: tabular-nums; color: rgb(1, 4, 9); font-family: -apple-system, &amp;quot;system-ui&amp;quot;, &amp;quot;Segoe UI&amp;quot;, &amp;quot;Noto Sans&amp;quot;, Helvetica, Arial, sans-serif, &amp;quot;Apple Color Emoji&amp;quot;, &amp;quot;Segoe UI Emoji&amp;quot;; font-size: 14px; font-style: normal; font-weight: 400; letter-spacing: normal; orphans: 2; text-align: start; text-transform: none; widows: 2; word-spacing: 0px; -webkit-text-stroke-width: 0px; white-space: normal; background-color: rgb(255, 255, 255); text-decoration-thickness: initial; text-decoration-style: initial; text-decoration-color: initial;&quot;&gt;&lt;thead style=&quot;box-sizing: border-box;&quot;&gt;&lt;tr style=&quot;box-sizing: border-box; background-color: rgb(255, 255, 255); border-top: 1px solid rgb(69, 76, 84);&quot;&gt;&lt;th style=&quot;box-sizing: border-box; padding: 6px 13px; font-weight: 600; border-color: rgb(69, 76, 84); border-style: solid; border-width: 1px; border-image: none 100% / 1 / 0 stretch;&quot;&gt;활성화 상태&lt;/th&gt;&lt;th style=&quot;box-sizing: border-box; padding: 6px 13px; font-weight: 600; border-color: rgb(69, 76, 84); border-style: solid; border-width: 1px; border-image: none 100% / 1 / 0 stretch;&quot;&gt;잠금 상태&lt;/th&gt;&lt;th style=&quot;box-sizing: border-box; padding: 6px 13px; font-weight: 600; border-color: rgb(69, 76, 84); border-style: solid; border-width: 1px; border-image: none 100% / 1 / 0 stretch;&quot;&gt;설명&lt;/th&gt;&lt;th style=&quot;box-sizing: border-box; padding: 6px 13px; font-weight: 600; border-color: rgb(69, 76, 84); border-style: solid; border-width: 1px; border-image: none 100% / 1 / 0 stretch;&quot;&gt;예시&lt;/th&gt;&lt;/tr&gt;&lt;/thead&gt;&lt;tbody style=&quot;box-sizing: border-box;&quot;&gt;&lt;tr style=&quot;box-sizing: border-box; background-color: rgb(255, 255, 255); border-top: 1px solid rgb(69, 76, 84);&quot;&gt;&lt;td style=&quot;box-sizing: border-box; padding: 6px 13px; border-color: rgb(69, 76, 84); border-style: solid; border-width: 1px; border-image: none 100% / 1 / 0 stretch;&quot;&gt;activate&lt;/td&gt;&lt;td style=&quot;box-sizing: border-box; padding: 6px 13px; border-color: rgb(69, 76, 84); border-style: solid; border-width: 1px; border-image: none 100% / 1 / 0 stretch;&quot;&gt;unlock&lt;/td&gt;&lt;td style=&quot;box-sizing: border-box; padding: 6px 13px; border-color: rgb(69, 76, 84); border-style: solid; border-width: 1px; border-image: none 100% / 1 / 0 stretch;&quot;&gt;정상 계정: 로그인 및 모든 서비스 이용이 가능한 상태입니다.&lt;/td&gt;&lt;td style=&quot;box-sizing: border-box; padding: 6px 13px; border-color: rgb(69, 76, 84); border-style: solid; border-width: 1px; border-image: none 100% / 1 / 0 stretch;&quot;&gt;대부분의 일반 사용자 계정&lt;/td&gt;&lt;/tr&gt;&lt;tr style=&quot;box-sizing: border-box; background-color: rgb(230, 234, 239); border-top: 1px solid rgb(69, 76, 84);&quot;&gt;&lt;td style=&quot;box-sizing: border-box; padding: 6px 13px; border-color: rgb(69, 76, 84); border-style: solid; border-width: 1px; border-image: none 100% / 1 / 0 stretch;&quot;&gt;activate&lt;/td&gt;&lt;td style=&quot;box-sizing: border-box; padding: 6px 13px; border-color: rgb(69, 76, 84); border-style: solid; border-width: 1px; border-image: none 100% / 1 / 0 stretch;&quot;&gt;lock&lt;/td&gt;&lt;td style=&quot;box-sizing: border-box; padding: 6px 13px; border-color: rgb(69, 76, 84); border-style: solid; border-width: 1px; border-image: none 100% / 1 / 0 stretch;&quot;&gt;일시 정지 계정: 계정은 활성화되어 있지만, 현재 로그인이 &lt;br&gt;불가능한 상태입니다.&lt;/td&gt;&lt;td style=&quot;box-sizing: border-box; padding: 6px 13px; border-color: rgb(69, 76, 84); border-style: solid; border-width: 1px; border-image: none 100% / 1 / 0 stretch;&quot;&gt;- 비밀번호 연속 실패&lt;br style=&quot;box-sizing: border-box; margin-bottom: 0px;&quot;&gt;- 관리자가 보안상 잠금 처리&lt;/td&gt;&lt;/tr&gt;&lt;tr style=&quot;box-sizing: border-box; background-color: rgb(255, 255, 255); border-top: 1px solid rgb(69, 76, 84);&quot;&gt;&lt;td style=&quot;box-sizing: border-box; padding: 6px 13px; border-color: rgb(69, 76, 84); border-style: solid; border-width: 1px; border-image: none 100% / 1 / 0 stretch;&quot;&gt;deactivate&lt;/td&gt;&lt;td style=&quot;box-sizing: border-box; padding: 6px 13px; border-color: rgb(69, 76, 84); border-style: solid; border-width: 1px; border-image: none 100% / 1 / 0 stretch;&quot;&gt;unlock&lt;/td&gt;&lt;td style=&quot;box-sizing: border-box; padding: 6px 13px; border-color: rgb(69, 76, 84); border-style: solid; border-width: 1px; border-image: none 100% / 1 / 0 stretch;&quot;&gt;비활성 계정: 계정 사용 중단 로그인이 가능합니다.&lt;/td&gt;&lt;td style=&quot;box-sizing: border-box; padding: 6px 13px; border-color: rgb(69, 76, 84); border-style: solid; border-width: 1px; border-image: none 100% / 1 / 0 stretch;&quot;&gt;- 휴면 계정으로 전환된 경우&lt;/td&gt;&lt;/tr&gt;&lt;tr style=&quot;box-sizing: border-box; background-color: rgb(230, 234, 239); border-top: 1px solid rgb(69, 76, 84);&quot;&gt;&lt;td style=&quot;box-sizing: border-box; padding: 6px 13px; border-color: rgb(69, 76, 84); border-style: solid; border-width: 1px; border-image: none 100% / 1 / 0 stretch;&quot;&gt;deactivate&lt;/td&gt;&lt;td style=&quot;box-sizing: border-box; padding: 6px 13px; border-color: rgb(69, 76, 84); border-style: solid; border-width: 1px; border-image: none 100% / 1 / 0 stretch;&quot;&gt;lock&lt;/td&gt;&lt;td style=&quot;box-sizing: border-box; padding: 6px 13px; border-color: rgb(69, 76, 84); border-style: solid; border-width: 1px; border-image: none 100% / 1 / 0 stretch;&quot;&gt;비활성 계정: 로그인 불가능&lt;/td&gt;&lt;td style=&quot;box-sizing: border-box; padding: 6px 13px; border-color: rgb(69, 76, 84); border-style: solid; border-width: 1px; border-image: none 100% / 1 / 0 stretch;&quot;&gt;- 사용자가 탈퇴를 요청한 경우&lt;/td&gt;&lt;/tr&gt;&lt;/tbody&gt;&lt;/table&gt;" style="text;whiteSpace=wrap;html=1;labelBackgroundColor=none;" parent="1" vertex="1">
                    <mxGeometry x="44" y="109" width="740" height="180" as="geometry"/>
                </mxCell>
                <mxCell id="3LQb9dPc7IVUKIHJpzme-78" value="pendingChanges [0..*]" style="edgeStyle=orthogonalEdgeStyle;rounded=0;orthogonalLoop=1;jettySize=auto;html=1;fontSize=12;startSize=8;endSize=8;endArrow=none;endFill=0;" parent="1" target="3LQb9dPc7IVUKIHJpzme-69" edge="1">
                    <mxGeometry x="0.6774" y="-70" relative="1" as="geometry">
                        <mxPoint x="420" y="572" as="sourcePoint"/>
                        <Array as="points">
                            <mxPoint x="420" y="614"/>
                            <mxPoint x="410" y="614"/>
                        </Array>
                        <mxPoint as="offset"/>
                    </mxGeometry>
                </mxCell>
                <mxCell id="3LQb9dPc7IVUKIHJpzme-79" value="1" style="edgeLabel;html=1;align=center;verticalAlign=middle;resizable=0;points=[];fontSize=12;" parent="3LQb9dPc7IVUKIHJpzme-78" vertex="1" connectable="0">
                    <mxGeometry x="-0.2688" y="-1" relative="1" as="geometry">
                        <mxPoint x="-9" y="-26" as="offset"/>
                    </mxGeometry>
                </mxCell>
                <mxCell id="3LQb9dPc7IVUKIHJpzme-99" value="1" style="edgeStyle=orthogonalEdgeStyle;rounded=0;orthogonalLoop=1;jettySize=auto;html=1;fontSize=12;startSize=8;endSize=8;" parent="1" source="3LQb9dPc7IVUKIHJpzme-41" target="3LQb9dPc7IVUKIHJpzme-92" edge="1">
                    <mxGeometry x="-0.8754" y="11" relative="1" as="geometry">
                        <mxPoint as="offset"/>
                    </mxGeometry>
                </mxCell>
                <mxCell id="3LQb9dPc7IVUKIHJpzme-100" value="attributes [0..*]" style="edgeLabel;html=1;align=center;verticalAlign=middle;resizable=0;points=[];fontSize=12;" parent="3LQb9dPc7IVUKIHJpzme-99" vertex="1" connectable="0">
                    <mxGeometry x="0.7279" relative="1" as="geometry">
                        <mxPoint x="-50" y="12" as="offset"/>
                    </mxGeometry>
                </mxCell>
                <mxCell id="3LQb9dPc7IVUKIHJpzme-41" value="User" style="swimlane;fontStyle=0;childLayout=stackLayout;horizontal=1;startSize=26;fillColor=none;horizontalStack=0;resizeParent=1;resizeParentMax=0;resizeLast=0;collapsible=1;marginBottom=0;whiteSpace=wrap;html=1;rounded=1;labelBackgroundColor=none;" parent="1" vertex="1">
                    <mxGeometry x="310" y="390" width="220" height="182" as="geometry">
                        <mxRectangle x="340" y="330" width="70" height="30" as="alternateBounds"/>
                    </mxGeometry>
                </mxCell>
                <mxCell id="3LQb9dPc7IVUKIHJpzme-42" value="userId: Id" style="text;strokeColor=none;fillColor=none;align=left;verticalAlign=top;spacingLeft=4;spacingRight=4;overflow=hidden;rotatable=0;points=[[0,0.5],[1,0.5]];portConstraint=eastwest;whiteSpace=wrap;html=1;labelBackgroundColor=none;" parent="3LQb9dPc7IVUKIHJpzme-41" vertex="1">
                    <mxGeometry y="26" width="220" height="26" as="geometry"/>
                </mxCell>
                <mxCell id="3LQb9dPc7IVUKIHJpzme-45" value="username: string {required, unique}" style="text;strokeColor=none;fillColor=none;align=left;verticalAlign=top;spacingLeft=4;spacingRight=4;overflow=hidden;rotatable=0;points=[[0,0.5],[1,0.5]];portConstraint=eastwest;whiteSpace=wrap;html=1;labelBackgroundColor=none;" parent="3LQb9dPc7IVUKIHJpzme-41" vertex="1">
                    <mxGeometry y="52" width="220" height="26" as="geometry"/>
                </mxCell>
                <mxCell id="3LQb9dPc7IVUKIHJpzme-46" value="password: string" style="text;strokeColor=none;fillColor=none;align=left;verticalAlign=top;spacingLeft=4;spacingRight=4;overflow=hidden;rotatable=0;points=[[0,0.5],[1,0.5]];portConstraint=eastwest;whiteSpace=wrap;html=1;labelBackgroundColor=none;" parent="3LQb9dPc7IVUKIHJpzme-41" vertex="1">
                    <mxGeometry y="78" width="220" height="26" as="geometry"/>
                </mxCell>
                <mxCell id="3LQb9dPc7IVUKIHJpzme-47" value="email: string" style="text;strokeColor=none;fillColor=none;align=left;verticalAlign=top;spacingLeft=4;spacingRight=4;overflow=hidden;rotatable=0;points=[[0,0.5],[1,0.5]];portConstraint=eastwest;whiteSpace=wrap;html=1;labelBackgroundColor=none;" parent="3LQb9dPc7IVUKIHJpzme-41" vertex="1">
                    <mxGeometry y="104" width="220" height="26" as="geometry"/>
                </mxCell>
                <mxCell id="3LQb9dPc7IVUKIHJpzme-48" value="contact: string" style="text;strokeColor=none;fillColor=none;align=left;verticalAlign=top;spacingLeft=4;spacingRight=4;overflow=hidden;rotatable=0;points=[[0,0.5],[1,0.5]];portConstraint=eastwest;whiteSpace=wrap;html=1;labelBackgroundColor=none;" parent="3LQb9dPc7IVUKIHJpzme-41" vertex="1">
                    <mxGeometry y="130" width="220" height="26" as="geometry"/>
                </mxCell>
                <mxCell id="3LQb9dPc7IVUKIHJpzme-49" value="accountStatus: AccountStatus" style="text;strokeColor=none;fillColor=none;align=left;verticalAlign=top;spacingLeft=4;spacingRight=4;overflow=hidden;rotatable=0;points=[[0,0.5],[1,0.5]];portConstraint=eastwest;whiteSpace=wrap;html=1;labelBackgroundColor=none;" parent="3LQb9dPc7IVUKIHJpzme-41" vertex="1">
                    <mxGeometry y="156" width="220" height="26" as="geometry"/>
                </mxCell>
                <mxCell id="3LQb9dPc7IVUKIHJpzme-60" value="AccountStatus" style="swimlane;fontStyle=0;childLayout=stackLayout;horizontal=1;startSize=26;fillColor=none;horizontalStack=0;resizeParent=1;resizeParentMax=0;resizeLast=0;collapsible=1;marginBottom=0;whiteSpace=wrap;html=1;rounded=1;labelBackgroundColor=none;" parent="1" vertex="1">
                    <mxGeometry x="50" y="416" width="190" height="130" as="geometry">
                        <mxRectangle x="50" y="360" width="120" height="30" as="alternateBounds"/>
                    </mxGeometry>
                </mxCell>
                <mxCell id="3LQb9dPc7IVUKIHJpzme-61" value="signUserId: User" style="text;strokeColor=none;fillColor=none;align=left;verticalAlign=top;spacingLeft=4;spacingRight=4;overflow=hidden;rotatable=0;points=[[0,0.5],[1,0.5]];portConstraint=eastwest;whiteSpace=wrap;html=1;labelBackgroundColor=none;" parent="3LQb9dPc7IVUKIHJpzme-60" vertex="1">
                    <mxGeometry y="26" width="190" height="26" as="geometry"/>
                </mxCell>
                <mxCell id="3LQb9dPc7IVUKIHJpzme-64" value="enabled: boolean" style="text;strokeColor=none;fillColor=none;align=left;verticalAlign=top;spacingLeft=4;spacingRight=4;overflow=hidden;rotatable=0;points=[[0,0.5],[1,0.5]];portConstraint=eastwest;whiteSpace=wrap;html=1;labelBackgroundColor=none;" parent="3LQb9dPc7IVUKIHJpzme-60" vertex="1">
                    <mxGeometry y="52" width="190" height="26" as="geometry"/>
                </mxCell>
                <mxCell id="3LQb9dPc7IVUKIHJpzme-65" value="locked: boolean" style="text;strokeColor=none;fillColor=none;align=left;verticalAlign=top;spacingLeft=4;spacingRight=4;overflow=hidden;rotatable=0;points=[[0,0.5],[1,0.5]];portConstraint=eastwest;whiteSpace=wrap;html=1;labelBackgroundColor=none;" parent="3LQb9dPc7IVUKIHJpzme-60" vertex="1">
                    <mxGeometry y="78" width="190" height="26" as="geometry"/>
                </mxCell>
                <mxCell id="3LQb9dPc7IVUKIHJpzme-66" value="failedAttemptCount: number" style="text;strokeColor=none;fillColor=none;align=left;verticalAlign=top;spacingLeft=4;spacingRight=4;overflow=hidden;rotatable=0;points=[[0,0.5],[1,0.5]];portConstraint=eastwest;whiteSpace=wrap;html=1;labelBackgroundColor=none;" parent="3LQb9dPc7IVUKIHJpzme-60" vertex="1">
                    <mxGeometry y="104" width="190" height="26" as="geometry"/>
                </mxCell>
                <mxCell id="3LQb9dPc7IVUKIHJpzme-67" style="edgeStyle=orthogonalEdgeStyle;rounded=0;orthogonalLoop=1;jettySize=auto;html=1;fontSize=12;startSize=8;endSize=8;endArrow=none;endFill=0;" parent="1" source="3LQb9dPc7IVUKIHJpzme-45" target="3LQb9dPc7IVUKIHJpzme-61" edge="1">
                    <mxGeometry relative="1" as="geometry"/>
                </mxCell>
                <mxCell id="3LQb9dPc7IVUKIHJpzme-89" style="edgeStyle=orthogonalEdgeStyle;rounded=0;orthogonalLoop=1;jettySize=auto;html=1;fontSize=12;startSize=8;endSize=8;endArrow=none;endFill=0;" parent="1" source="3LQb9dPc7IVUKIHJpzme-69" target="3LQb9dPc7IVUKIHJpzme-80" edge="1">
                    <mxGeometry relative="1" as="geometry"/>
                </mxCell>
                <mxCell id="3LQb9dPc7IVUKIHJpzme-90" value="changeDetails [1..*]" style="edgeLabel;html=1;align=center;verticalAlign=middle;resizable=0;points=[];fontSize=12;" parent="3LQb9dPc7IVUKIHJpzme-89" vertex="1" connectable="0">
                    <mxGeometry x="0.5865" relative="1" as="geometry">
                        <mxPoint x="60" as="offset"/>
                    </mxGeometry>
                </mxCell>
                <mxCell id="3LQb9dPc7IVUKIHJpzme-91" value="1" style="edgeLabel;html=1;align=center;verticalAlign=middle;resizable=0;points=[];fontSize=12;" parent="3LQb9dPc7IVUKIHJpzme-89" vertex="1" connectable="0">
                    <mxGeometry x="-0.7468" relative="1" as="geometry">
                        <mxPoint x="-10" as="offset"/>
                    </mxGeometry>
                </mxCell>
                <mxCell id="3LQb9dPc7IVUKIHJpzme-69" value="PendingChange" style="swimlane;fontStyle=0;childLayout=stackLayout;horizontal=1;startSize=26;fillColor=none;horizontalStack=0;resizeParent=1;resizeParentMax=0;resizeLast=0;collapsible=1;marginBottom=0;whiteSpace=wrap;html=1;rounded=1;labelBackgroundColor=none;" parent="1" vertex="1">
                    <mxGeometry x="315" y="670" width="190" height="156" as="geometry">
                        <mxRectangle x="50" y="360" width="120" height="30" as="alternateBounds"/>
                    </mxGeometry>
                </mxCell>
                <mxCell id="3LQb9dPc7IVUKIHJpzme-73" value="pendingChangeId: Id" style="text;strokeColor=none;fillColor=none;align=left;verticalAlign=top;spacingLeft=4;spacingRight=4;overflow=hidden;rotatable=0;points=[[0,0.5],[1,0.5]];portConstraint=eastwest;whiteSpace=wrap;html=1;labelBackgroundColor=none;" parent="3LQb9dPc7IVUKIHJpzme-69" vertex="1">
                    <mxGeometry y="26" width="190" height="26" as="geometry"/>
                </mxCell>
                <mxCell id="3LQb9dPc7IVUKIHJpzme-74" value="userId: User" style="text;strokeColor=none;fillColor=none;align=left;verticalAlign=top;spacingLeft=4;spacingRight=4;overflow=hidden;rotatable=0;points=[[0,0.5],[1,0.5]];portConstraint=eastwest;whiteSpace=wrap;html=1;labelBackgroundColor=none;" parent="3LQb9dPc7IVUKIHJpzme-69" vertex="1">
                    <mxGeometry y="52" width="190" height="26" as="geometry"/>
                </mxCell>
                <mxCell id="3LQb9dPc7IVUKIHJpzme-75" value="changeType: string" style="text;strokeColor=none;fillColor=none;align=left;verticalAlign=top;spacingLeft=4;spacingRight=4;overflow=hidden;rotatable=0;points=[[0,0.5],[1,0.5]];portConstraint=eastwest;whiteSpace=wrap;html=1;labelBackgroundColor=none;" parent="3LQb9dPc7IVUKIHJpzme-69" vertex="1">
                    <mxGeometry y="78" width="190" height="26" as="geometry"/>
                </mxCell>
                <mxCell id="3LQb9dPc7IVUKIHJpzme-76" value="effectiveDate: datetime" style="text;strokeColor=none;fillColor=none;align=left;verticalAlign=top;spacingLeft=4;spacingRight=4;overflow=hidden;rotatable=0;points=[[0,0.5],[1,0.5]];portConstraint=eastwest;whiteSpace=wrap;html=1;labelBackgroundColor=none;" parent="3LQb9dPc7IVUKIHJpzme-69" vertex="1">
                    <mxGeometry y="104" width="190" height="26" as="geometry"/>
                </mxCell>
                <mxCell id="3LQb9dPc7IVUKIHJpzme-77" value="status: string" style="text;strokeColor=none;fillColor=none;align=left;verticalAlign=top;spacingLeft=4;spacingRight=4;overflow=hidden;rotatable=0;points=[[0,0.5],[1,0.5]];portConstraint=eastwest;whiteSpace=wrap;html=1;labelBackgroundColor=none;" parent="3LQb9dPc7IVUKIHJpzme-69" vertex="1">
                    <mxGeometry y="130" width="190" height="26" as="geometry"/>
                </mxCell>
                <mxCell id="3LQb9dPc7IVUKIHJpzme-80" value="ChangeDetail" style="swimlane;fontStyle=0;childLayout=stackLayout;horizontal=1;startSize=26;fillColor=none;horizontalStack=0;resizeParent=1;resizeParentMax=0;resizeLast=0;collapsible=1;marginBottom=0;whiteSpace=wrap;html=1;rounded=1;labelBackgroundColor=none;" parent="1" vertex="1">
                    <mxGeometry x="315" y="890" width="190" height="130" as="geometry">
                        <mxRectangle x="50" y="360" width="120" height="30" as="alternateBounds"/>
                    </mxGeometry>
                </mxCell>
                <mxCell id="3LQb9dPc7IVUKIHJpzme-85" value="changeDetailId: Id" style="text;strokeColor=none;fillColor=none;align=left;verticalAlign=top;spacingLeft=4;spacingRight=4;overflow=hidden;rotatable=0;points=[[0,0.5],[1,0.5]];portConstraint=eastwest;whiteSpace=wrap;html=1;labelBackgroundColor=none;" parent="3LQb9dPc7IVUKIHJpzme-80" vertex="1">
                    <mxGeometry y="26" width="190" height="26" as="geometry"/>
                </mxCell>
                <mxCell id="3LQb9dPc7IVUKIHJpzme-86" value="attributeName: string" style="text;strokeColor=none;fillColor=none;align=left;verticalAlign=top;spacingLeft=4;spacingRight=4;overflow=hidden;rotatable=0;points=[[0,0.5],[1,0.5]];portConstraint=eastwest;whiteSpace=wrap;html=1;labelBackgroundColor=none;" parent="3LQb9dPc7IVUKIHJpzme-80" vertex="1">
                    <mxGeometry y="52" width="190" height="26" as="geometry"/>
                </mxCell>
                <mxCell id="3LQb9dPc7IVUKIHJpzme-87" value="oldValue: UserAttribute" style="text;strokeColor=none;fillColor=none;align=left;verticalAlign=top;spacingLeft=4;spacingRight=4;overflow=hidden;rotatable=0;points=[[0,0.5],[1,0.5]];portConstraint=eastwest;whiteSpace=wrap;html=1;labelBackgroundColor=none;" parent="3LQb9dPc7IVUKIHJpzme-80" vertex="1">
                    <mxGeometry y="78" width="190" height="26" as="geometry"/>
                </mxCell>
                <mxCell id="3LQb9dPc7IVUKIHJpzme-88" value="newValue: UserAttribute" style="text;strokeColor=none;fillColor=none;align=left;verticalAlign=top;spacingLeft=4;spacingRight=4;overflow=hidden;rotatable=0;points=[[0,0.5],[1,0.5]];portConstraint=eastwest;whiteSpace=wrap;html=1;labelBackgroundColor=none;" parent="3LQb9dPc7IVUKIHJpzme-80" vertex="1">
                    <mxGeometry y="104" width="190" height="26" as="geometry"/>
                </mxCell>
                <mxCell id="3LQb9dPc7IVUKIHJpzme-92" value="UserAttribute" style="swimlane;fontStyle=0;childLayout=stackLayout;horizontal=1;startSize=26;fillColor=none;horizontalStack=0;resizeParent=1;resizeParentMax=0;resizeLast=0;collapsible=1;marginBottom=0;whiteSpace=wrap;html=1;rounded=1;labelBackgroundColor=none;" parent="1" vertex="1">
                    <mxGeometry x="580" y="580" width="220" height="104" as="geometry">
                        <mxRectangle x="340" y="330" width="70" height="30" as="alternateBounds"/>
                    </mxGeometry>
                </mxCell>
                <mxCell id="3LQb9dPc7IVUKIHJpzme-93" value="attributeId: Id" style="text;strokeColor=none;fillColor=none;align=left;verticalAlign=top;spacingLeft=4;spacingRight=4;overflow=hidden;rotatable=0;points=[[0,0.5],[1,0.5]];portConstraint=eastwest;whiteSpace=wrap;html=1;labelBackgroundColor=none;" parent="3LQb9dPc7IVUKIHJpzme-92" vertex="1">
                    <mxGeometry y="26" width="220" height="26" as="geometry"/>
                </mxCell>
                <mxCell id="3LQb9dPc7IVUKIHJpzme-101" value="name: string" style="text;strokeColor=none;fillColor=none;align=left;verticalAlign=top;spacingLeft=4;spacingRight=4;overflow=hidden;rotatable=0;points=[[0,0.5],[1,0.5]];portConstraint=eastwest;whiteSpace=wrap;html=1;labelBackgroundColor=none;" parent="3LQb9dPc7IVUKIHJpzme-92" vertex="1">
                    <mxGeometry y="52" width="220" height="26" as="geometry"/>
                </mxCell>
                <mxCell id="3LQb9dPc7IVUKIHJpzme-102" value="value: string" style="text;strokeColor=none;fillColor=none;align=left;verticalAlign=top;spacingLeft=4;spacingRight=4;overflow=hidden;rotatable=0;points=[[0,0.5],[1,0.5]];portConstraint=eastwest;whiteSpace=wrap;html=1;labelBackgroundColor=none;" parent="3LQb9dPc7IVUKIHJpzme-92" vertex="1">
                    <mxGeometry y="78" width="220" height="26" as="geometry"/>
                </mxCell>
                <mxCell id="3LQb9dPc7IVUKIHJpzme-104" value="계정 상태 조합을 통한 계정 관리 시나리오" style="text;html=1;align=left;verticalAlign=middle;resizable=0;points=[];autosize=1;strokeColor=none;fillColor=none;fontSize=16;fontStyle=1" parent="1" vertex="1">
                    <mxGeometry x="44" y="70" width="290" height="30" as="geometry"/>
                </mxCell>
                <mxCell id="3LQb9dPc7IVUKIHJpzme-105" value="회원관리 비즈니스 도메인 모델" style="text;html=1;align=left;verticalAlign=middle;resizable=0;points=[];autosize=1;strokeColor=none;fillColor=none;fontSize=16;fontStyle=1" parent="1" vertex="1">
                    <mxGeometry x="50" y="350" width="220" height="30" as="geometry"/>
                </mxCell>
            </root>
        </mxGraphModel>
    </diagram>
    <diagram id="awR1huI1SV_9AlRr1vQr" name="스키마">
        <mxGraphModel dx="1224" dy="731" grid="1" gridSize="10" guides="1" tooltips="1" connect="1" arrows="1" fold="1" page="1" pageScale="1" pageWidth="827" pageHeight="1169" math="0" shadow="0">
            <root>
                <mxCell id="0"/>
                <mxCell id="1" parent="0"/>
                <mxCell id="yJoWEjn5frGJoAwZTb1b-5" value="SYSTEM_DOMAIN_USER" style="swimlane;fontStyle=0;childLayout=stackLayout;horizontal=1;startSize=26;fillColor=none;horizontalStack=0;resizeParent=1;resizeParentMax=0;resizeLast=0;collapsible=1;marginBottom=0;whiteSpace=wrap;html=1;rounded=1;labelBackgroundColor=none;" parent="1" vertex="1">
                    <mxGeometry x="90" y="100" width="260" height="364" as="geometry">
                        <mxRectangle x="340" y="330" width="70" height="30" as="alternateBounds"/>
                    </mxGeometry>
                </mxCell>
                <mxCell id="yJoWEjn5frGJoAwZTb1b-6" value="USER_ID varchar(26) not null PK" style="text;strokeColor=none;fillColor=none;align=left;verticalAlign=top;spacingLeft=4;spacingRight=4;overflow=hidden;rotatable=0;points=[[0,0.5],[1,0.5]];portConstraint=eastwest;whiteSpace=wrap;html=1;labelBackgroundColor=none;rounded=1;" parent="yJoWEjn5frGJoAwZTb1b-5" vertex="1">
                    <mxGeometry y="26" width="260" height="26" as="geometry"/>
                </mxCell>
                <mxCell id="Q4rXhLjFRMlQeq3qWq11-3" value="-----------------------------------------------------------" style="text;strokeColor=none;fillColor=none;align=left;verticalAlign=top;spacingLeft=4;spacingRight=4;overflow=hidden;rotatable=0;points=[[0,0.5],[1,0.5]];portConstraint=eastwest;whiteSpace=wrap;html=1;labelBackgroundColor=none;rounded=1;" parent="yJoWEjn5frGJoAwZTb1b-5" vertex="1">
                    <mxGeometry y="52" width="260" height="26" as="geometry"/>
                </mxCell>
                <mxCell id="yJoWEjn5frGJoAwZTb1b-7" value="USERNAME varchar(255) not null UNIQUE" style="text;strokeColor=none;fillColor=none;align=left;verticalAlign=top;spacingLeft=4;spacingRight=4;overflow=hidden;rotatable=0;points=[[0,0.5],[1,0.5]];portConstraint=eastwest;whiteSpace=wrap;html=1;labelBackgroundColor=none;rounded=1;" parent="yJoWEjn5frGJoAwZTb1b-5" vertex="1">
                    <mxGeometry y="78" width="260" height="26" as="geometry"/>
                </mxCell>
                <mxCell id="yJoWEjn5frGJoAwZTb1b-8" value="PASSWORD varchar(2048) not null" style="text;strokeColor=none;fillColor=none;align=left;verticalAlign=top;spacingLeft=4;spacingRight=4;overflow=hidden;rotatable=0;points=[[0,0.5],[1,0.5]];portConstraint=eastwest;whiteSpace=wrap;html=1;labelBackgroundColor=none;rounded=1;" parent="yJoWEjn5frGJoAwZTb1b-5" vertex="1">
                    <mxGeometry y="104" width="260" height="26" as="geometry"/>
                </mxCell>
                <mxCell id="yJoWEjn5frGJoAwZTb1b-9" value="EMAIL varchar(255) not null" style="text;strokeColor=none;fillColor=none;align=left;verticalAlign=top;spacingLeft=4;spacingRight=4;overflow=hidden;rotatable=0;points=[[0,0.5],[1,0.5]];portConstraint=eastwest;whiteSpace=wrap;html=1;labelBackgroundColor=none;rounded=1;" parent="yJoWEjn5frGJoAwZTb1b-5" vertex="1">
                    <mxGeometry y="130" width="260" height="26" as="geometry"/>
                </mxCell>
                <mxCell id="yJoWEjn5frGJoAwZTb1b-10" value="CONTACT varchar(255)" style="text;strokeColor=none;fillColor=none;align=left;verticalAlign=top;spacingLeft=4;spacingRight=4;overflow=hidden;rotatable=0;points=[[0,0.5],[1,0.5]];portConstraint=eastwest;whiteSpace=wrap;html=1;labelBackgroundColor=none;rounded=1;" parent="yJoWEjn5frGJoAwZTb1b-5" vertex="1">
                    <mxGeometry y="156" width="260" height="26" as="geometry"/>
                </mxCell>
                <mxCell id="yJoWEjn5frGJoAwZTb1b-14" value="ENABLED vachar(10)" style="text;strokeColor=none;fillColor=none;align=left;verticalAlign=top;spacingLeft=4;spacingRight=4;overflow=hidden;rotatable=0;points=[[0,0.5],[1,0.5]];portConstraint=eastwest;whiteSpace=wrap;html=1;labelBackgroundColor=none;rounded=1;" parent="yJoWEjn5frGJoAwZTb1b-5" vertex="1">
                    <mxGeometry y="182" width="260" height="26" as="geometry"/>
                </mxCell>
                <mxCell id="yJoWEjn5frGJoAwZTb1b-15" value="LOCKED varchar(10)" style="text;strokeColor=none;fillColor=none;align=left;verticalAlign=top;spacingLeft=4;spacingRight=4;overflow=hidden;rotatable=0;points=[[0,0.5],[1,0.5]];portConstraint=eastwest;whiteSpace=wrap;html=1;labelBackgroundColor=none;rounded=1;" parent="yJoWEjn5frGJoAwZTb1b-5" vertex="1">
                    <mxGeometry y="208" width="260" height="26" as="geometry"/>
                </mxCell>
                <mxCell id="yJoWEjn5frGJoAwZTb1b-16" value="FAILED_ATTEMPT_COUNT smallint" style="text;strokeColor=none;fillColor=none;align=left;verticalAlign=top;spacingLeft=4;spacingRight=4;overflow=hidden;rotatable=0;points=[[0,0.5],[1,0.5]];portConstraint=eastwest;whiteSpace=wrap;html=1;labelBackgroundColor=none;rounded=1;" parent="yJoWEjn5frGJoAwZTb1b-5" vertex="1">
                    <mxGeometry y="234" width="260" height="26" as="geometry"/>
                </mxCell>
                <mxCell id="yJoWEjn5frGJoAwZTb1b-36" value="CREATOR varchar(26)" style="text;strokeColor=none;fillColor=none;align=left;verticalAlign=top;spacingLeft=4;spacingRight=4;overflow=hidden;rotatable=0;points=[[0,0.5],[1,0.5]];portConstraint=eastwest;whiteSpace=wrap;html=1;labelBackgroundColor=none;rounded=1;" parent="yJoWEjn5frGJoAwZTb1b-5" vertex="1">
                    <mxGeometry y="260" width="260" height="26" as="geometry"/>
                </mxCell>
                <mxCell id="yJoWEjn5frGJoAwZTb1b-37" value="CREATED timestamp" style="text;strokeColor=none;fillColor=none;align=left;verticalAlign=top;spacingLeft=4;spacingRight=4;overflow=hidden;rotatable=0;points=[[0,0.5],[1,0.5]];portConstraint=eastwest;whiteSpace=wrap;html=1;labelBackgroundColor=none;rounded=1;" parent="yJoWEjn5frGJoAwZTb1b-5" vertex="1">
                    <mxGeometry y="286" width="260" height="26" as="geometry"/>
                </mxCell>
                <mxCell id="yJoWEjn5frGJoAwZTb1b-38" value="MODIFIER varchar(26)" style="text;strokeColor=none;fillColor=none;align=left;verticalAlign=top;spacingLeft=4;spacingRight=4;overflow=hidden;rotatable=0;points=[[0,0.5],[1,0.5]];portConstraint=eastwest;whiteSpace=wrap;html=1;labelBackgroundColor=none;rounded=1;" parent="yJoWEjn5frGJoAwZTb1b-5" vertex="1">
                    <mxGeometry y="312" width="260" height="26" as="geometry"/>
                </mxCell>
                <mxCell id="yJoWEjn5frGJoAwZTb1b-39" value="MODIFIED timestamp" style="text;strokeColor=none;fillColor=none;align=left;verticalAlign=top;spacingLeft=4;spacingRight=4;overflow=hidden;rotatable=0;points=[[0,0.5],[1,0.5]];portConstraint=eastwest;whiteSpace=wrap;html=1;labelBackgroundColor=none;rounded=1;" parent="yJoWEjn5frGJoAwZTb1b-5" vertex="1">
                    <mxGeometry y="338" width="260" height="26" as="geometry"/>
                </mxCell>
                <mxCell id="yJoWEjn5frGJoAwZTb1b-21" value="SYSTEM_DOMAIN_USER_PENDING_CHANGE" style="swimlane;fontStyle=0;childLayout=stackLayout;horizontal=1;startSize=26;fillColor=none;horizontalStack=0;resizeParent=1;resizeParentMax=0;resizeLast=0;collapsible=1;marginBottom=0;whiteSpace=wrap;html=1;rounded=1;labelBackgroundColor=none;" parent="1" vertex="1">
                    <mxGeometry x="90" y="580" width="280" height="286" as="geometry">
                        <mxRectangle x="50" y="360" width="120" height="30" as="alternateBounds"/>
                    </mxGeometry>
                </mxCell>
                <mxCell id="yJoWEjn5frGJoAwZTb1b-22" value="PENDING_CHANGE_ID varchar(26) not null PK" style="text;strokeColor=none;fillColor=none;align=left;verticalAlign=top;spacingLeft=4;spacingRight=4;overflow=hidden;rotatable=0;points=[[0,0.5],[1,0.5]];portConstraint=eastwest;whiteSpace=wrap;html=1;labelBackgroundColor=none;rounded=1;" parent="yJoWEjn5frGJoAwZTb1b-21" vertex="1">
                    <mxGeometry y="26" width="280" height="26" as="geometry"/>
                </mxCell>
                <mxCell id="Q4rXhLjFRMlQeq3qWq11-19" value="-----------------------------------------------------------------" style="text;strokeColor=none;fillColor=none;align=left;verticalAlign=top;spacingLeft=4;spacingRight=4;overflow=hidden;rotatable=0;points=[[0,0.5],[1,0.5]];portConstraint=eastwest;whiteSpace=wrap;html=1;labelBackgroundColor=none;rounded=1;" parent="yJoWEjn5frGJoAwZTb1b-21" vertex="1">
                    <mxGeometry y="52" width="280" height="26" as="geometry"/>
                </mxCell>
                <mxCell id="yJoWEjn5frGJoAwZTb1b-23" value="USER_ID varchar(26) not null FK" style="text;strokeColor=none;fillColor=none;align=left;verticalAlign=top;spacingLeft=4;spacingRight=4;overflow=hidden;rotatable=0;points=[[0,0.5],[1,0.5]];portConstraint=eastwest;whiteSpace=wrap;html=1;labelBackgroundColor=none;rounded=1;" parent="yJoWEjn5frGJoAwZTb1b-21" vertex="1">
                    <mxGeometry y="78" width="280" height="26" as="geometry"/>
                </mxCell>
                <mxCell id="yJoWEjn5frGJoAwZTb1b-24" value="CHANGE_TYPE varchar(10)" style="text;strokeColor=none;fillColor=none;align=left;verticalAlign=top;spacingLeft=4;spacingRight=4;overflow=hidden;rotatable=0;points=[[0,0.5],[1,0.5]];portConstraint=eastwest;whiteSpace=wrap;html=1;labelBackgroundColor=none;rounded=1;" parent="yJoWEjn5frGJoAwZTb1b-21" vertex="1">
                    <mxGeometry y="104" width="280" height="26" as="geometry"/>
                </mxCell>
                <mxCell id="yJoWEjn5frGJoAwZTb1b-25" value="EFFECTIVE_DATE timestamp" style="text;strokeColor=none;fillColor=none;align=left;verticalAlign=top;spacingLeft=4;spacingRight=4;overflow=hidden;rotatable=0;points=[[0,0.5],[1,0.5]];portConstraint=eastwest;whiteSpace=wrap;html=1;labelBackgroundColor=none;rounded=1;" parent="yJoWEjn5frGJoAwZTb1b-21" vertex="1">
                    <mxGeometry y="130" width="280" height="26" as="geometry"/>
                </mxCell>
                <mxCell id="yJoWEjn5frGJoAwZTb1b-26" value="STATUS varchar(10)" style="text;strokeColor=none;fillColor=none;align=left;verticalAlign=top;spacingLeft=4;spacingRight=4;overflow=hidden;rotatable=0;points=[[0,0.5],[1,0.5]];portConstraint=eastwest;whiteSpace=wrap;html=1;labelBackgroundColor=none;rounded=1;" parent="yJoWEjn5frGJoAwZTb1b-21" vertex="1">
                    <mxGeometry y="156" width="280" height="26" as="geometry"/>
                </mxCell>
                <mxCell id="Q4rXhLjFRMlQeq3qWq11-15" value="CREATOR varchar(26)" style="text;strokeColor=none;fillColor=none;align=left;verticalAlign=top;spacingLeft=4;spacingRight=4;overflow=hidden;rotatable=0;points=[[0,0.5],[1,0.5]];portConstraint=eastwest;whiteSpace=wrap;html=1;labelBackgroundColor=none;rounded=1;" parent="yJoWEjn5frGJoAwZTb1b-21" vertex="1">
                    <mxGeometry y="182" width="280" height="26" as="geometry"/>
                </mxCell>
                <mxCell id="Q4rXhLjFRMlQeq3qWq11-16" value="CREATED timestamp" style="text;strokeColor=none;fillColor=none;align=left;verticalAlign=top;spacingLeft=4;spacingRight=4;overflow=hidden;rotatable=0;points=[[0,0.5],[1,0.5]];portConstraint=eastwest;whiteSpace=wrap;html=1;labelBackgroundColor=none;rounded=1;" parent="yJoWEjn5frGJoAwZTb1b-21" vertex="1">
                    <mxGeometry y="208" width="280" height="26" as="geometry"/>
                </mxCell>
                <mxCell id="Q4rXhLjFRMlQeq3qWq11-17" value="MODIFIER varchar(26)" style="text;strokeColor=none;fillColor=none;align=left;verticalAlign=top;spacingLeft=4;spacingRight=4;overflow=hidden;rotatable=0;points=[[0,0.5],[1,0.5]];portConstraint=eastwest;whiteSpace=wrap;html=1;labelBackgroundColor=none;rounded=1;" parent="yJoWEjn5frGJoAwZTb1b-21" vertex="1">
                    <mxGeometry y="234" width="280" height="26" as="geometry"/>
                </mxCell>
                <mxCell id="Q4rXhLjFRMlQeq3qWq11-18" value="MODIFIED timestamp" style="text;strokeColor=none;fillColor=none;align=left;verticalAlign=top;spacingLeft=4;spacingRight=4;overflow=hidden;rotatable=0;points=[[0,0.5],[1,0.5]];portConstraint=eastwest;whiteSpace=wrap;html=1;labelBackgroundColor=none;rounded=1;" parent="yJoWEjn5frGJoAwZTb1b-21" vertex="1">
                    <mxGeometry y="260" width="280" height="26" as="geometry"/>
                </mxCell>
                <mxCell id="yJoWEjn5frGJoAwZTb1b-27" value="&lt;font color=&quot;#121212&quot;&gt;SYSTEM_DOMAIN_&lt;/font&gt;USER_CHANGE_DETAIL" style="swimlane;fontStyle=0;childLayout=stackLayout;horizontal=1;startSize=26;fillColor=none;horizontalStack=0;resizeParent=1;resizeParentMax=0;resizeLast=0;collapsible=1;marginBottom=0;whiteSpace=wrap;html=1;rounded=1;labelBackgroundColor=none;" parent="1" vertex="1">
                    <mxGeometry x="470" y="590" width="265" height="286" as="geometry">
                        <mxRectangle x="50" y="360" width="120" height="30" as="alternateBounds"/>
                    </mxGeometry>
                </mxCell>
                <mxCell id="yJoWEjn5frGJoAwZTb1b-28" value="CHANGE_DETAIL_ID varchar(26) not null PK" style="text;strokeColor=none;fillColor=none;align=left;verticalAlign=top;spacingLeft=4;spacingRight=4;overflow=hidden;rotatable=0;points=[[0,0.5],[1,0.5]];portConstraint=eastwest;whiteSpace=wrap;html=1;labelBackgroundColor=none;rounded=1;" parent="yJoWEjn5frGJoAwZTb1b-27" vertex="1">
                    <mxGeometry y="26" width="265" height="26" as="geometry"/>
                </mxCell>
                <mxCell id="Q4rXhLjFRMlQeq3qWq11-21" value="--------------------------------------------------------------" style="text;strokeColor=none;fillColor=none;align=left;verticalAlign=top;spacingLeft=4;spacingRight=4;overflow=hidden;rotatable=0;points=[[0,0.5],[1,0.5]];portConstraint=eastwest;whiteSpace=wrap;html=1;labelBackgroundColor=none;rounded=1;" parent="yJoWEjn5frGJoAwZTb1b-27" vertex="1">
                    <mxGeometry y="52" width="265" height="26" as="geometry"/>
                </mxCell>
                <mxCell id="Q4rXhLjFRMlQeq3qWq11-22" value="PENDING_CHANGE_ID varchar26) not null FK" style="text;strokeColor=none;fillColor=none;align=left;verticalAlign=top;spacingLeft=4;spacingRight=4;overflow=hidden;rotatable=0;points=[[0,0.5],[1,0.5]];portConstraint=eastwest;whiteSpace=wrap;html=1;labelBackgroundColor=none;rounded=1;" parent="yJoWEjn5frGJoAwZTb1b-27" vertex="1">
                    <mxGeometry y="78" width="265" height="26" as="geometry"/>
                </mxCell>
                <mxCell id="yJoWEjn5frGJoAwZTb1b-29" value="ATTRIBUTE_NAME varchar(255) not null" style="text;strokeColor=none;fillColor=none;align=left;verticalAlign=top;spacingLeft=4;spacingRight=4;overflow=hidden;rotatable=0;points=[[0,0.5],[1,0.5]];portConstraint=eastwest;whiteSpace=wrap;html=1;labelBackgroundColor=none;rounded=1;" parent="yJoWEjn5frGJoAwZTb1b-27" vertex="1">
                    <mxGeometry y="104" width="265" height="26" as="geometry"/>
                </mxCell>
                <mxCell id="yJoWEjn5frGJoAwZTb1b-30" value="OLD_VALUE varchar(2048)" style="text;strokeColor=none;fillColor=none;align=left;verticalAlign=top;spacingLeft=4;spacingRight=4;overflow=hidden;rotatable=0;points=[[0,0.5],[1,0.5]];portConstraint=eastwest;whiteSpace=wrap;html=1;labelBackgroundColor=none;rounded=1;" parent="yJoWEjn5frGJoAwZTb1b-27" vertex="1">
                    <mxGeometry y="130" width="265" height="26" as="geometry"/>
                </mxCell>
                <mxCell id="yJoWEjn5frGJoAwZTb1b-31" value="NEW_VALUE varchar(2048) not null" style="text;strokeColor=none;fillColor=none;align=left;verticalAlign=top;spacingLeft=4;spacingRight=4;overflow=hidden;rotatable=0;points=[[0,0.5],[1,0.5]];portConstraint=eastwest;whiteSpace=wrap;html=1;labelBackgroundColor=none;rounded=1;" parent="yJoWEjn5frGJoAwZTb1b-27" vertex="1">
                    <mxGeometry y="156" width="265" height="26" as="geometry"/>
                </mxCell>
                <mxCell id="Q4rXhLjFRMlQeq3qWq11-11" value="CREATOR varchar(26)" style="text;strokeColor=none;fillColor=none;align=left;verticalAlign=top;spacingLeft=4;spacingRight=4;overflow=hidden;rotatable=0;points=[[0,0.5],[1,0.5]];portConstraint=eastwest;whiteSpace=wrap;html=1;labelBackgroundColor=none;rounded=1;" parent="yJoWEjn5frGJoAwZTb1b-27" vertex="1">
                    <mxGeometry y="182" width="265" height="26" as="geometry"/>
                </mxCell>
                <mxCell id="Q4rXhLjFRMlQeq3qWq11-12" value="CREATED timestamp" style="text;strokeColor=none;fillColor=none;align=left;verticalAlign=top;spacingLeft=4;spacingRight=4;overflow=hidden;rotatable=0;points=[[0,0.5],[1,0.5]];portConstraint=eastwest;whiteSpace=wrap;html=1;labelBackgroundColor=none;rounded=1;" parent="yJoWEjn5frGJoAwZTb1b-27" vertex="1">
                    <mxGeometry y="208" width="265" height="26" as="geometry"/>
                </mxCell>
                <mxCell id="Q4rXhLjFRMlQeq3qWq11-13" value="MODIFIER varchar(26)" style="text;strokeColor=none;fillColor=none;align=left;verticalAlign=top;spacingLeft=4;spacingRight=4;overflow=hidden;rotatable=0;points=[[0,0.5],[1,0.5]];portConstraint=eastwest;whiteSpace=wrap;html=1;labelBackgroundColor=none;rounded=1;" parent="yJoWEjn5frGJoAwZTb1b-27" vertex="1">
                    <mxGeometry y="234" width="265" height="26" as="geometry"/>
                </mxCell>
                <mxCell id="Q4rXhLjFRMlQeq3qWq11-14" value="MODIFIED timestamp" style="text;strokeColor=none;fillColor=none;align=left;verticalAlign=top;spacingLeft=4;spacingRight=4;overflow=hidden;rotatable=0;points=[[0,0.5],[1,0.5]];portConstraint=eastwest;whiteSpace=wrap;html=1;labelBackgroundColor=none;rounded=1;" parent="yJoWEjn5frGJoAwZTb1b-27" vertex="1">
                    <mxGeometry y="260" width="265" height="26" as="geometry"/>
                </mxCell>
                <mxCell id="yJoWEjn5frGJoAwZTb1b-32" value="&lt;font color=&quot;#121212&quot;&gt;SYSTEM_DOMAIN_USER_ATTRIBUTE&lt;/font&gt;" style="swimlane;fontStyle=0;childLayout=stackLayout;horizontal=1;startSize=26;fillColor=none;horizontalStack=0;resizeParent=1;resizeParentMax=0;resizeLast=0;collapsible=1;marginBottom=0;whiteSpace=wrap;html=1;rounded=1;labelBackgroundColor=none;" parent="1" vertex="1">
                    <mxGeometry x="475" y="100" width="235" height="260" as="geometry">
                        <mxRectangle x="340" y="330" width="70" height="30" as="alternateBounds"/>
                    </mxGeometry>
                </mxCell>
                <mxCell id="yJoWEjn5frGJoAwZTb1b-33" value="ATTRIBUTE_ID varchar(26) not null PK" style="text;strokeColor=none;fillColor=none;align=left;verticalAlign=top;spacingLeft=4;spacingRight=4;overflow=hidden;rotatable=0;points=[[0,0.5],[1,0.5]];portConstraint=eastwest;whiteSpace=wrap;html=1;labelBackgroundColor=none;rounded=1;" parent="yJoWEjn5frGJoAwZTb1b-32" vertex="1">
                    <mxGeometry y="26" width="235" height="26" as="geometry"/>
                </mxCell>
                <mxCell id="Q4rXhLjFRMlQeq3qWq11-4" value="-------------------------------------------------------" style="text;strokeColor=none;fillColor=none;align=left;verticalAlign=top;spacingLeft=4;spacingRight=4;overflow=hidden;rotatable=0;points=[[0,0.5],[1,0.5]];portConstraint=eastwest;whiteSpace=wrap;html=1;labelBackgroundColor=none;rounded=1;" parent="yJoWEjn5frGJoAwZTb1b-32" vertex="1">
                    <mxGeometry y="52" width="235" height="26" as="geometry"/>
                </mxCell>
                <mxCell id="Q4rXhLjFRMlQeq3qWq11-1" value="USER_ID varchar(26) not null FK" style="text;strokeColor=none;fillColor=none;align=left;verticalAlign=top;spacingLeft=4;spacingRight=4;overflow=hidden;rotatable=0;points=[[0,0.5],[1,0.5]];portConstraint=eastwest;whiteSpace=wrap;html=1;labelBackgroundColor=none;rounded=1;" parent="yJoWEjn5frGJoAwZTb1b-32" vertex="1">
                    <mxGeometry y="78" width="235" height="26" as="geometry"/>
                </mxCell>
                <mxCell id="yJoWEjn5frGJoAwZTb1b-34" value="NAME varchar(255) not null" style="text;strokeColor=none;fillColor=none;align=left;verticalAlign=top;spacingLeft=4;spacingRight=4;overflow=hidden;rotatable=0;points=[[0,0.5],[1,0.5]];portConstraint=eastwest;whiteSpace=wrap;html=1;labelBackgroundColor=none;rounded=1;" parent="yJoWEjn5frGJoAwZTb1b-32" vertex="1">
                    <mxGeometry y="104" width="235" height="26" as="geometry"/>
                </mxCell>
                <mxCell id="yJoWEjn5frGJoAwZTb1b-35" value="VALUE varchar(2048) not null" style="text;strokeColor=none;fillColor=none;align=left;verticalAlign=top;spacingLeft=4;spacingRight=4;overflow=hidden;rotatable=0;points=[[0,0.5],[1,0.5]];portConstraint=eastwest;whiteSpace=wrap;html=1;labelBackgroundColor=none;rounded=1;" parent="yJoWEjn5frGJoAwZTb1b-32" vertex="1">
                    <mxGeometry y="130" width="235" height="26" as="geometry"/>
                </mxCell>
                <mxCell id="Q4rXhLjFRMlQeq3qWq11-5" value="CREATOR varchar(26)" style="text;strokeColor=none;fillColor=none;align=left;verticalAlign=top;spacingLeft=4;spacingRight=4;overflow=hidden;rotatable=0;points=[[0,0.5],[1,0.5]];portConstraint=eastwest;whiteSpace=wrap;html=1;labelBackgroundColor=none;rounded=1;" parent="yJoWEjn5frGJoAwZTb1b-32" vertex="1">
                    <mxGeometry y="156" width="235" height="26" as="geometry"/>
                </mxCell>
                <mxCell id="Q4rXhLjFRMlQeq3qWq11-6" value="CREATED timestamp" style="text;strokeColor=none;fillColor=none;align=left;verticalAlign=top;spacingLeft=4;spacingRight=4;overflow=hidden;rotatable=0;points=[[0,0.5],[1,0.5]];portConstraint=eastwest;whiteSpace=wrap;html=1;labelBackgroundColor=none;rounded=1;" parent="yJoWEjn5frGJoAwZTb1b-32" vertex="1">
                    <mxGeometry y="182" width="235" height="26" as="geometry"/>
                </mxCell>
                <mxCell id="Q4rXhLjFRMlQeq3qWq11-7" value="MODIFIER varchar(26)" style="text;strokeColor=none;fillColor=none;align=left;verticalAlign=top;spacingLeft=4;spacingRight=4;overflow=hidden;rotatable=0;points=[[0,0.5],[1,0.5]];portConstraint=eastwest;whiteSpace=wrap;html=1;labelBackgroundColor=none;rounded=1;" parent="yJoWEjn5frGJoAwZTb1b-32" vertex="1">
                    <mxGeometry y="208" width="235" height="26" as="geometry"/>
                </mxCell>
                <mxCell id="Q4rXhLjFRMlQeq3qWq11-8" value="MODIFIED timestamp" style="text;strokeColor=none;fillColor=none;align=left;verticalAlign=top;spacingLeft=4;spacingRight=4;overflow=hidden;rotatable=0;points=[[0,0.5],[1,0.5]];portConstraint=eastwest;whiteSpace=wrap;html=1;labelBackgroundColor=none;rounded=1;" parent="yJoWEjn5frGJoAwZTb1b-32" vertex="1">
                    <mxGeometry y="234" width="235" height="26" as="geometry"/>
                </mxCell>
                <mxCell id="Q4rXhLjFRMlQeq3qWq11-10" style="edgeStyle=orthogonalEdgeStyle;rounded=1;html=1;dashed=1;" parent="1" source="Q4rXhLjFRMlQeq3qWq11-1" target="yJoWEjn5frGJoAwZTb1b-6" edge="1">
                    <mxGeometry relative="1" as="geometry"/>
                </mxCell>
                <mxCell id="Q4rXhLjFRMlQeq3qWq11-20" style="edgeStyle=orthogonalEdgeStyle;rounded=1;html=1;dashed=1;" parent="1" source="yJoWEjn5frGJoAwZTb1b-23" target="yJoWEjn5frGJoAwZTb1b-6" edge="1">
                    <mxGeometry relative="1" as="geometry">
                        <Array as="points">
                            <mxPoint x="30" y="671"/>
                            <mxPoint x="30" y="139"/>
                        </Array>
                    </mxGeometry>
                </mxCell>
                <mxCell id="Q4rXhLjFRMlQeq3qWq11-23" style="edgeStyle=orthogonalEdgeStyle;rounded=1;html=1;dashed=1;" parent="1" source="Q4rXhLjFRMlQeq3qWq11-22" target="yJoWEjn5frGJoAwZTb1b-22" edge="1">
                    <mxGeometry relative="1" as="geometry"/>
                </mxCell>
            </root>
        </mxGraphModel>
    </diagram>
</mxfile>